<svg width="1256" height="625" viewBox="0 0 1256 625" fill="none" xmlns="http://www.w3.org/2000/svg">
<path d="M1347.52 115.412H1357.4C1376.68 115.412 1390.53 124.77 1398.94 143.485C1400.31 149.385 1401 153.672 1401 156.345V159.249C1401 191.885 1373.3 220.095 1317.9 243.88C1311.6 247.199 1302.04 250.841 1289.25 254.805V255.911C1298.3 258.677 1306.52 266.006 1313.93 277.899C1316.58 285.458 1317.9 292.096 1317.9 297.812V302.79C1317.9 324.639 1306.39 341.833 1283.35 354.371C1272.2 358.427 1261 360.456 1249.76 360.456C1224.71 360.456 1207.66 348.148 1198.61 323.533C1200.62 322.243 1202.54 321.597 1204.37 321.597C1209.3 321.597 1212.92 326.253 1215.2 335.564C1224.98 348.102 1235.22 354.371 1245.92 354.371H1253.73C1276.77 354.371 1293.91 342.432 1305.15 318.555C1307.07 311.456 1308.03 306.201 1308.03 302.79V297.812C1308.03 280.941 1298.84 267.942 1280.47 258.815H1265.66C1264.29 258.815 1263.6 258.17 1263.6 256.879C1263.6 254.021 1270.51 251.67 1284.31 249.827C1338.79 231.204 1372.07 209.032 1384.13 183.311C1388.8 175.383 1391.13 167.685 1391.13 160.217V156.345C1391.13 139.474 1381.53 127.858 1362.33 121.497L1350.54 120.391C1336.74 120.391 1316.3 133.067 1289.25 158.419C1251.95 200.827 1224.66 237.611 1207.38 268.772C1192.85 290.713 1178.68 314.637 1164.88 340.542C1145.5 374.008 1124.11 415.125 1100.7 463.894L1095.77 465H1092.89C1091.88 465 1090.56 463.663 1088.91 460.99C1088.91 447.069 1114.23 389.957 1164.88 289.653C1201.72 218.021 1221.78 177.872 1225.07 169.206L1223.29 168.376C1227.68 158.973 1232.25 154.271 1237 154.271C1239.65 155.377 1240.98 156.391 1240.98 157.313C1238.33 165.057 1215.98 210.507 1173.93 293.663C1141.93 356.445 1124.79 391.293 1122.51 398.208C1123.88 397.655 1131.15 384.103 1144.31 357.552C1233.71 196.125 1301.45 115.412 1347.52 115.412Z" fill="#6EF4AC" fill-opacity="0.1"/>
<path d="M1159.86 34.5603L1152.88 27.5199C1139.24 13.7651 1122.89 10.5056 1103.82 17.7416C1098.72 20.9358 1095.23 23.4782 1093.35 25.3687L1091.31 27.4221C1068.43 50.4989 1068.24 90.1989 1090.73 146.522C1092.87 153.367 1097.07 162.754 1103.34 174.683L1102.56 175.466C1094.22 170.968 1083.27 170.283 1069.69 173.412C1062.52 176.867 1056.93 180.616 1052.92 184.657L1049.43 188.178C1034.11 203.627 1030.2 223.999 1037.7 249.292C1042.74 260.113 1049.23 269.533 1057.18 277.551C1074.9 295.413 1095.58 298.868 1119.24 287.916C1118.72 285.57 1117.82 283.744 1116.52 282.44C1113.03 278.92 1107.22 279.637 1099.07 284.592C1083.36 286.482 1071.73 283.614 1064.17 275.987L1058.64 270.413C1042.35 253.986 1038.6 233.321 1047.39 208.419C1051.01 202.03 1054.02 197.63 1056.41 195.218L1059.9 191.698C1071.73 179.768 1087.34 177.128 1106.73 183.777L1117.2 194.338C1118.17 195.316 1119.11 195.348 1120.01 194.436C1122.02 192.415 1118.79 185.831 1110.32 174.683C1084.85 122.663 1076.87 83.2563 1086.37 56.4637C1088.63 47.5328 1092.38 40.4273 1097.62 35.147L1100.33 32.409C1112.16 20.4795 1127.09 19.1105 1145.13 28.3021L1154.24 35.9292C1164 45.7727 1169.56 69.3059 1170.92 106.529C1167.56 163.112 1161.06 208.582 1151.43 242.936C1146.32 268.816 1139.57 295.837 1131.16 323.998C1121.4 361.482 1107.7 405.81 1090.05 456.983L1092.77 461.286L1094.81 463.339C1095.52 464.056 1097.39 464.056 1100.43 463.339C1110.19 453.496 1132.33 395.054 1166.85 288.014C1191.02 211.091 1204.98 168.393 1208.73 159.918L1210.57 160.603C1214.07 150.824 1214.13 144.24 1210.77 140.851C1208.12 139.742 1206.47 139.514 1205.82 140.166C1202.27 147.532 1186.21 195.609 1157.63 284.396C1136.24 351.606 1123.93 388.47 1120.69 394.989C1120.11 393.62 1124.47 378.855 1133.78 350.693C1183.75 172.793 1192.44 67.4154 1159.86 34.5603Z" fill="#6EF4AC" fill-opacity="0.1"/>
<path d="M1399.43 143.371L1399.42 143.324L1399.4 143.28C1395.16 133.857 1389.55 126.758 1382.53 122.016C1375.51 117.273 1367.12 114.912 1357.4 114.912H1347.52C1335.86 114.912 1322.89 120.018 1308.62 130.138C1294.34 140.261 1278.73 155.43 1261.78 175.626C1228.26 215.567 1189.46 275.235 1145.37 354.612C1146.51 351.257 1147.67 347.826 1148.85 344.319C1155.92 330.207 1164.43 313.397 1174.37 293.89L1174.37 293.889C1195.4 252.31 1211.5 220.157 1222.68 197.429C1233.84 174.723 1240.11 161.386 1241.45 157.475L1241.48 157.396V157.313C1241.48 156.607 1240.98 155.993 1240.29 155.464C1239.58 154.919 1238.54 154.369 1237.2 153.809L1237.1 153.771H1237C1234.45 153.771 1231.99 155.039 1229.65 157.449C1227.31 159.856 1225.04 163.438 1222.84 168.165L1222.63 168.618L1223.08 168.829L1224.44 169.461C1222.6 174.112 1216.83 186.145 1207.11 205.594C1198.28 223.263 1186.2 247.031 1170.87 276.9C1181.29 243.818 1189.64 217.669 1195.92 198.453C1202.69 177.778 1207.04 165.157 1209 160.552L1210.4 161.071L1210.88 161.248L1211.05 160.771C1212.8 155.856 1213.71 151.706 1213.74 148.336C1213.77 144.962 1212.93 142.32 1211.12 140.498L1211.05 140.428L1210.96 140.389C1209.62 139.829 1208.5 139.476 1207.61 139.353C1206.75 139.234 1205.97 139.312 1205.47 139.814L1205.41 139.873L1205.37 139.949C1203.58 143.669 1198.66 157.571 1190.64 181.59C1182.6 205.631 1171.44 239.849 1157.16 284.243L1157.16 284.244C1150.21 306.072 1144.22 324.699 1139.19 340.124C1137.65 343.27 1136.14 346.356 1134.67 349.383C1159.41 261.099 1173.95 190.726 1178.28 138.276C1180.45 111.908 1180.05 90.0505 1177.05 72.7144C1174.06 55.3833 1168.47 42.5235 1160.22 34.2082L1153.24 27.1678C1146.36 20.2315 1138.78 15.921 1130.49 14.2688C1122.2 12.6171 1113.25 13.6303 1103.64 17.2741L1103.6 17.2916L1103.56 17.3177C1098.45 20.5133 1094.91 23.0816 1093 25.0166L1090.96 27.07C1067.85 50.3794 1067.77 90.3564 1090.26 146.689C1092.39 153.514 1096.55 162.819 1102.72 174.592L1102.47 174.85C1094.03 170.431 1083.04 169.822 1069.58 172.925L1069.53 172.938L1069.48 172.962C1062.27 176.432 1056.62 180.211 1052.56 184.305L1049.07 187.826C1033.6 203.435 1029.68 224.01 1037.22 249.434L1037.23 249.47L1037.24 249.503C1042.31 260.374 1048.84 269.842 1056.83 277.903C1065.74 286.893 1075.43 292.284 1085.9 294.032C1096.36 295.78 1107.55 293.878 1119.45 288.37L1119.81 288.201L1119.73 287.809C1119.2 285.398 1118.26 283.477 1116.88 282.088C1115 280.198 1112.51 279.468 1109.48 279.842C1106.49 280.21 1102.96 281.649 1098.9 284.108C1083.33 285.963 1071.91 283.091 1064.52 275.635L1058.99 270.061C1050.91 261.911 1045.96 252.728 1044.1 242.505C1042.25 232.289 1043.49 221 1047.85 208.627C1051.46 202.264 1054.43 197.927 1056.76 195.57L1060.25 192.05C1066.1 186.154 1072.87 182.565 1080.56 181.263C1088.24 179.966 1096.86 180.937 1106.46 184.212L1116.85 194.69C1117.38 195.227 1117.97 195.573 1118.62 195.595C1119.27 195.618 1119.86 195.305 1120.37 194.788C1121.03 194.122 1121.19 193.14 1121.03 191.994C1120.87 190.843 1120.36 189.427 1119.54 187.762C1117.91 184.433 1114.97 179.982 1110.75 174.42C1085.3 122.434 1077.41 83.2088 1086.84 56.6308L1086.85 56.609L1086.85 56.5865C1089.1 47.7217 1092.81 40.7023 1097.97 35.499L1100.69 32.7611C1106.53 26.8691 1113.11 23.6055 1120.45 22.9331C1127.78 22.261 1135.91 24.1729 1144.85 28.722L1153.9 36.2977C1158.68 41.1239 1162.48 49.3547 1165.24 61.0767C1168.01 72.7943 1169.74 87.9396 1170.42 106.523C1167.06 163.078 1160.56 208.5 1150.95 242.801L1150.94 242.82L1150.94 242.839C1145.84 268.702 1139.08 295.707 1130.69 323.855L1130.68 323.864L1130.68 323.872C1123.32 352.135 1113.72 384.295 1101.87 420.353C1098.24 428.913 1095.35 436.223 1093.19 442.283C1090.03 451.154 1088.41 457.411 1088.41 460.99V461.131L1088.49 461.252C1089.32 462.603 1090.08 463.642 1090.78 464.349C1091.47 465.038 1092.18 465.5 1092.89 465.5H1095.77H1095.82L1095.88 465.488L1100.81 464.382L1101.05 464.329L1101.15 464.11C1101.46 463.479 1101.76 462.849 1102.06 462.221C1104.37 459.275 1107.19 454.202 1110.52 447.056C1112.84 442.105 1115.41 436.138 1118.24 429.154C1135.06 395.379 1150.76 365.926 1165.31 340.793L1165.31 340.785L1165.32 340.778C1179.12 314.884 1193.28 290.975 1207.8 269.048L1207.81 269.032L1207.82 269.014C1225.07 237.902 1252.33 201.155 1289.61 158.768C1303.11 146.112 1314.95 136.634 1325.13 130.323C1335.3 124.009 1343.76 120.898 1350.52 120.891L1362.23 121.99C1371.74 125.149 1378.83 129.594 1383.54 135.298C1388.26 141.006 1390.63 148.011 1390.63 156.345V160.217C1390.63 167.577 1388.33 175.188 1383.7 183.058L1383.69 183.078L1383.68 183.099C1371.71 208.612 1338.64 230.723 1284.19 249.338C1277.31 250.259 1272.11 251.311 1268.62 252.499C1266.87 253.094 1265.52 253.734 1264.6 254.432C1263.68 255.127 1263.1 255.94 1263.1 256.879C1263.1 257.61 1263.3 258.247 1263.78 258.695C1264.25 259.138 1264.91 259.315 1265.66 259.315H1280.35C1289.43 263.842 1296.22 269.308 1300.73 275.698C1305.26 282.108 1307.53 289.473 1307.53 297.812V302.79C1307.53 306.124 1306.59 311.31 1304.68 318.382C1299.09 330.242 1292.05 339.106 1283.58 345.007C1275.1 350.912 1265.16 353.871 1253.73 353.871H1245.92C1235.46 353.871 1225.37 347.762 1215.66 335.341C1214.51 330.706 1213.03 327.172 1211.17 324.782C1209.29 322.359 1207.02 321.097 1204.37 321.097C1202.42 321.097 1200.41 321.786 1198.34 323.112L1198 323.329L1198.14 323.706C1202.69 336.083 1209.27 345.405 1217.89 351.63C1226.52 357.857 1237.15 360.956 1249.76 360.956C1261.06 360.956 1272.32 358.916 1283.52 354.841L1283.56 354.828L1283.59 354.81C1306.75 342.206 1318.4 324.863 1318.4 302.79V297.812C1318.4 292.022 1317.06 285.326 1314.4 277.733L1314.38 277.681L1314.35 277.634C1307.01 265.84 1298.82 258.439 1289.75 255.544V255.173C1302.36 251.252 1311.83 247.639 1318.12 244.332C1373.53 220.539 1401.5 192.212 1401.5 159.249V156.345C1401.5 153.61 1400.8 149.274 1399.43 143.371Z" stroke="#6EF4AC" stroke-opacity="0.07"/>
<path d="M177.191 68.2193H178.079C179.814 68.2193 181.059 69.07 181.815 70.7713C181.938 71.3077 182 71.6974 182 71.9405V72.2045C182 75.1713 179.509 77.7359 174.528 79.8982C173.961 80.1999 173.102 80.531 171.951 80.8914V80.9919C172.765 81.2434 173.505 81.9096 174.171 82.9908C174.409 83.678 174.528 84.2815 174.528 84.8011V85.2537C174.528 87.24 173.492 88.803 171.421 89.9428C170.418 90.3116 169.411 90.496 168.4 90.496C166.148 90.496 164.615 89.3771 163.801 87.1394C163.982 87.022 164.155 86.9634 164.319 86.9634C164.763 86.9634 165.088 87.3866 165.293 88.2331C166.173 89.3729 167.093 89.9428 168.055 89.9428H168.758C170.829 89.9428 172.37 88.8575 173.382 86.6868C173.554 86.0415 173.64 85.5638 173.64 85.2537V84.8011C173.64 83.2674 172.814 82.0856 171.162 81.2559H169.831C169.707 81.2559 169.646 81.1973 169.646 81.0799C169.646 80.8201 170.266 80.6064 171.507 80.4388C176.406 78.7458 179.398 76.7302 180.483 74.3919C180.903 73.6711 181.112 72.9713 181.112 72.2925V71.9405C181.112 70.4068 180.249 69.3507 178.523 68.7725L177.463 68.6719C176.221 68.6719 174.384 69.8243 171.951 72.129C168.598 75.9843 166.144 79.3283 164.59 82.1611C163.283 84.1558 162.009 86.3306 160.768 88.6857C159.026 91.728 157.102 95.4659 154.998 99.8994L154.554 100H154.295C154.205 100 154.086 99.8785 153.938 99.6354C153.938 98.3699 156.214 93.1779 160.768 84.0594C164.081 77.5473 165.885 73.8974 166.181 73.1096L166.021 73.0342C166.415 72.1793 166.826 71.7519 167.254 71.7519C167.492 71.8525 167.611 71.9447 167.611 72.0285C167.373 72.7325 165.363 76.8643 161.582 84.4239C158.705 90.1314 157.164 93.2994 156.958 93.928C157.082 93.8777 157.735 92.6457 158.919 90.232C166.958 75.5569 173.049 68.2193 177.191 68.2193Z" fill="#6EF4AC" fill-opacity="0.4"/>
<path d="M160.318 60.8691L159.69 60.2291C158.463 58.9786 156.993 58.6823 155.278 59.3401C154.819 59.6305 154.505 59.8617 154.337 60.0335L154.154 60.2202C152.096 62.3181 152.079 65.9272 154.101 71.0474C154.293 71.6697 154.671 72.5231 155.235 73.6076L155.165 73.6787C154.415 73.2698 153.43 73.2076 152.209 73.492C151.564 73.8061 151.061 74.1469 150.701 74.5143L150.387 74.8343C149.01 76.2388 148.658 78.0908 149.332 80.3902C149.786 81.3739 150.37 82.2303 151.085 82.9592C152.677 84.583 154.537 84.8971 156.665 83.9015C156.618 83.6881 156.537 83.5222 156.42 83.4037C156.107 83.0837 155.583 83.1488 154.851 83.5992C153.439 83.7711 152.393 83.5104 151.712 82.817L151.216 82.3103C149.751 80.8169 149.414 78.9382 150.204 76.6744C150.53 76.0937 150.8 75.6936 151.015 75.4744L151.329 75.1543C152.393 74.0698 153.796 73.8298 155.54 74.4343L156.481 75.3944C156.569 75.4832 156.653 75.4862 156.734 75.4032C156.914 75.2195 156.624 74.621 155.862 73.6076C153.572 68.8784 152.855 65.296 153.709 62.8603C153.912 62.0484 154.25 61.4025 154.72 60.9225L154.964 60.6735C156.028 59.589 157.371 59.4646 158.992 60.3002L159.812 60.9936C160.69 61.8884 161.189 64.0278 161.311 67.4117C161.009 72.5557 160.425 76.6892 159.559 79.8124C159.1 82.1651 158.492 84.6215 157.737 87.1817C156.859 90.5893 155.627 94.6191 154.04 99.2712L154.284 99.6623L154.467 99.849C154.531 99.9142 154.7 99.9142 154.973 99.849C155.851 98.9542 157.842 93.6413 160.945 83.9104C163.119 76.9174 164.375 73.0357 164.712 72.2653L164.877 72.3275C165.191 71.4386 165.197 70.84 164.895 70.5319C164.656 70.4311 164.508 70.4104 164.45 70.4696C164.13 71.1393 162.686 75.5099 160.117 83.5815C158.193 89.6914 157.086 93.0427 156.795 93.6353C156.743 93.5109 157.135 92.1686 157.972 89.6085C162.465 73.4357 163.247 63.8559 160.318 60.8691Z" fill="#6EF4AC" fill-opacity="0.4"/>
<path d="M164.877 72.3275L164.756 72.2847L164.877 72.3275ZM164.877 72.3275L164.877 72.3275L164.877 72.3275ZM164.552 71.6713C164.52 71.8085 164.475 71.9628 164.415 72.1354C164.412 72.1439 164.409 72.1525 164.406 72.161L164.71 72.2686L164.895 70.5319C165.139 70.781 165.182 71.2198 165.024 71.8484L164.887 71.7972L164.552 71.6713ZM164.552 71.6713L164.53 71.6631L164.901 70.685C164.844 70.8058 164.739 71.0772 164.587 71.5038C164.578 71.5565 164.566 71.6123 164.552 71.6713ZM182.302 70.6593L182.292 70.6123L182.272 70.5682C181.865 69.6526 181.311 68.9332 180.596 68.4444C179.878 67.9542 179.031 67.7193 178.079 67.7193H177.191C176.01 67.7193 174.75 68.2404 173.428 69.1888C172.101 70.1401 170.669 71.5509 169.131 73.4031C167.617 75.2274 165.988 77.4954 164.243 80.205C165.095 78.4875 165.806 77.0438 166.375 75.874C167.371 73.8264 167.953 72.5792 168.085 72.1888L168.111 72.1108V72.0285C168.111 71.7435 167.917 71.5699 167.828 71.501C167.718 71.4161 167.583 71.3482 167.448 71.2912L167.355 71.2519H167.254C166.858 71.2519 166.527 71.4531 166.264 71.7259C166.004 71.9963 165.775 72.3728 165.567 72.8247L165.359 73.2753L165.533 73.3573C165.287 73.9039 164.832 74.8518 164.158 76.2163C163.934 76.6693 163.687 77.1664 163.416 77.7078C163.626 77.0476 163.818 76.4478 163.993 75.9082C164.459 74.4676 164.793 73.473 164.999 72.9072L165.179 72.9749L165.349 72.494C165.515 72.0239 165.613 71.5934 165.617 71.2168C165.621 70.8371 165.527 70.4622 165.252 70.1818L165.182 70.1103L165.089 70.0713C164.955 70.0144 164.812 69.9648 164.674 69.9456C164.564 69.9301 164.297 69.9113 164.093 70.1195L164.035 70.179L163.999 70.2542C163.822 70.6256 163.368 71.927 162.652 74.093C162.247 75.3206 161.752 76.8394 161.17 78.6491C161.813 75.4833 162.233 72.7114 162.427 70.3347C162.624 67.9169 162.59 65.8884 162.312 64.2612C162.034 62.6392 161.507 61.3674 160.675 60.519L160.047 59.879C159.376 59.1946 158.615 58.7499 157.766 58.5789C156.919 58.4082 156.025 58.5181 155.099 58.8733L155.053 58.8911L155.011 58.9176C154.55 59.2094 154.192 59.4667 153.98 59.6834L153.797 59.8701C151.512 62.1997 151.606 66.083 153.629 71.2135C153.771 71.6672 153.999 72.2214 154.309 72.8723C153.645 72.7646 152.902 72.8172 152.096 73.0051L152.041 73.0178L151.991 73.0425C151.313 73.3725 150.757 73.7434 150.344 74.1642L150.03 74.4842C148.496 76.0482 148.14 78.1025 148.853 80.5309L148.863 80.5661L148.878 80.5994C149.354 81.6322 149.97 82.5369 150.728 83.3093C151.582 84.1807 152.537 84.7277 153.591 84.9056C154.643 85.0834 155.744 84.8846 156.876 84.3543L157.238 84.1851L157.153 83.795C157.093 83.5181 156.977 83.2574 156.777 83.0536L156.42 83.4037L156.777 83.0536C156.491 82.7619 156.116 82.6683 155.731 82.7164C155.397 82.7579 155.046 82.9042 154.687 83.1148C153.413 83.2512 152.583 82.9906 152.069 82.4669L151.572 81.9602C150.903 81.278 150.505 80.5239 150.356 79.6929C150.208 78.8681 150.3 77.9347 150.662 76.8804C150.974 76.327 151.21 75.9892 151.372 75.8245L151.686 75.5044L151.329 75.1543L151.686 75.5044C152.149 75.032 152.673 74.7549 153.264 74.6538C153.834 74.5562 154.498 74.618 155.267 74.8698L156.124 75.7445C156.216 75.8374 156.373 75.9552 156.592 75.9629C156.822 75.971 156.991 75.8558 157.091 75.7533C157.293 75.5474 157.3 75.2852 157.276 75.1178C157.252 74.9451 157.183 74.7672 157.101 74.5982C156.939 74.2635 156.663 73.8431 156.292 73.3464C154.025 68.6526 153.401 65.2496 154.181 63.0258L154.188 63.0042L154.194 62.9819C154.381 62.2353 154.682 61.6753 155.077 61.2726L155.321 61.0237C155.782 60.5545 156.277 60.3146 156.815 60.2647C157.352 60.215 157.98 60.3494 158.714 60.7193L159.47 61.3592C159.807 61.7123 160.119 62.3592 160.358 63.383C160.597 64.4044 160.75 65.7421 160.811 67.4061C160.509 72.5217 159.929 76.6083 159.077 79.6788L159.072 79.6975L159.068 79.7166C158.612 82.0523 158.009 84.4934 157.257 87.0401L157.255 87.0485L157.253 87.057C156.595 89.6107 155.736 92.5191 154.676 95.783C154.351 96.5595 154.089 97.2268 153.893 97.7838C153.611 98.5828 153.438 99.2215 153.438 99.6354V99.7756L153.51 99.8954C153.593 100.031 153.683 100.159 153.781 100.259C153.86 100.34 154.037 100.5 154.295 100.5H154.554H154.61L154.665 100.488L155.108 100.387L155.345 100.333L155.45 100.114C155.47 100.07 155.491 100.027 155.512 99.9832C155.752 99.6599 156.012 99.1694 156.294 98.5592C156.504 98.1046 156.736 97.56 156.99 96.9264C158.497 93.869 159.901 91.2052 161.202 88.9342L161.206 88.9266L161.211 88.9188C162.445 86.5762 163.711 84.4151 165.009 82.4351L165.019 82.4187L165.029 82.4015C166.556 79.6171 168.979 76.3096 172.313 72.4755C173.509 71.3434 174.544 70.5089 175.42 69.9597C176.297 69.4093 176.962 69.1789 177.441 69.172L178.418 69.2647C179.192 69.5318 179.731 69.89 180.078 70.3146C180.427 70.7422 180.612 71.2737 180.612 71.9405V72.2925C180.612 72.8649 180.436 73.4788 180.051 74.1405L180.04 74.1605L180.03 74.1815C179.041 76.3125 176.245 78.2661 171.391 79.9501C170.784 80.0336 170.297 80.132 169.948 80.252C169.772 80.3127 169.598 80.3899 169.459 80.4962C169.321 80.6009 169.146 80.7929 169.146 81.0799C169.146 81.2222 169.184 81.4191 169.347 81.5741C169.505 81.7248 169.698 81.7559 169.831 81.7559H171.041C171.759 82.1319 172.273 82.5676 172.611 83.051C172.962 83.5524 173.14 84.1298 173.14 84.8011V85.2537C173.14 85.4884 173.073 85.8987 172.91 86.5151C172.435 87.5217 171.853 88.2457 171.179 88.72C170.501 89.1975 169.701 89.4428 168.758 89.4428H168.055C167.332 89.4428 166.562 89.0294 165.752 88.0081C165.644 87.5997 165.498 87.2443 165.292 86.9765C165.057 86.6694 164.729 86.4634 164.319 86.4634C164.032 86.4634 163.766 86.5661 163.529 86.7199L163.195 86.9364L163.331 87.3103C163.764 88.4987 164.402 89.4294 165.267 90.0607C166.134 90.6936 167.189 90.996 168.4 90.996C169.474 90.996 170.539 90.8 171.594 90.4121L171.629 90.3991L171.662 90.3809C173.857 89.1732 175.028 87.4603 175.028 85.2537V84.8011C175.028 84.2083 174.893 83.5475 174.643 82.8269L174.625 82.7752L174.596 82.7286C174.154 82.0103 173.662 81.435 173.113 81.033C173.783 80.7961 174.33 80.5684 174.745 80.3491C179.739 78.1776 182.5 75.4954 182.5 72.2045V71.9405C182.5 71.636 182.426 71.1982 182.302 70.6593Z" stroke="#6EF4AC" stroke-opacity="0.4"/>
<path d="M154.632 99.954C153.631 100.69 152.64 101.841 151.527 102.398C150.555 102.884 149.212 102.8 148.164 102.8C145.256 102.8 142.502 101.081 140.387 99.1778C139.323 98.22 138.22 97.3703 137.354 96.2168C136.486 95.0589 136.301 93.7945 135.687 92.5659C135.005 91.2015 134.968 88.8353 134.968 87.2906C134.968 85.0337 134.253 83.0072 134.192 80.808C134.156 79.5235 133.386 78.3744 133.157 77.0564C132.906 75.6098 131.847 73.2083 130.944 72.1406C128.578 69.3447 126.475 66.7904 123.268 64.9105C120.95 63.5517 117.218 62.1272 114.529 61.9351C111.067 61.6879 107.813 61.1445 104.294 61.1445C100.443 61.1445 96.389 61.514 92.551 61.1302C90.5297 60.928 88.5779 60.3683 86.5283 60.3683C84.4777 60.3683 82.427 60.3683 80.3763 60.3683C78.2839 60.3683 76.3528 60.5628 74.2818 60.9864C72.7889 61.2918 71.2866 61.0291 69.8977 61.777C68.1339 62.7267 65.7022 62.6869 64.0188 63.7318C63.1687 64.2595 61.6093 64.7347 60.6266 64.9967C59.5422 65.2859 58.5809 66.1396 57.5074 66.3048C55.0599 66.6813 52.9686 68.1019 50.6223 68.7052C48.2548 69.314 46.0725 69.4239 43.6366 69.4239C42.2731 69.4239 40.8034 68.3719 39.5257 67.929C37.8172 67.3367 35.9964 66.8267 34.4805 65.816C32.3596 64.4021 29.4986 63.4014 27.8541 61.3458C27.1011 60.4045 26.4626 59.3828 25.8418 58.356C22.3119 52.5181 24.4473 45.7462 27.2791 40.1874C29.253 36.3129 31.9018 31.8433 35.616 29.522C38.0711 27.9875 41.3586 26.5539 44.2116 25.4973C47.4456 24.2995 50.7274 20.9435 50.6223 17.1604C50.4955 12.5926 46.8162 8.91553 43.1767 6.65309C40.5702 5.03284 37.3478 3.88803 34.4948 2.72902C33.5089 2.32848 32.4538 2.2986 31.4619 1.88096C30.3522 1.41369 29.4321 1.11914 28.2278 1.11914C24.7648 1.11914 21.2832 0.601685 17.8211 0.601685C15.3333 0.601685 13.0865 0.950212 10.6342 1.32038C8.44472 1.65086 6.29003 1.76365 4.1803 2.4128C3.69506 2.5621 2.80217 3.17454 2.44106 3.18899C1.77288 3.21571 1.0976 3.18899 0.428711 3.18899" stroke="#6EF4AC" stroke-opacity="0.4" stroke-width="0.8" stroke-dasharray="3 3"/>
<path d="M1262 554.403C1242.58 545.738 1221.14 542.128 1199.58 541.34C1182.92 540.731 1167.09 536.985 1150.23 536.985C1136.75 536.985 1123.26 536.985 1109.78 536.985C1095.14 536.985 1082.25 541.145 1068.68 545.371C1059.69 548.174 1047.43 554.12 1040.41 560.531C1035.03 565.451 1028.11 566.899 1021.62 569.643C1016.86 571.66 1007.31 573.881 1003.89 577.626C1001.74 579.991 997.804 579.784 994.987 581.174C990.319 583.478 988.488 585.658 983.221 586.658C972.137 588.761 960.375 592.457 949.558 595.77C932.361 601.037 913.532 606.11 895.796 609.236C871.767 613.471 848.275 618.854 823.732 619.719C806.8 620.316 784.977 627.589 768.499 621.735C761.188 619.137 754.114 614.583 747.256 611.01C740.013 607.238 729.344 604.891 723.888 598.834C721.054 595.688 712.549 591.578 711.959 586.335C711.645 583.544 709.629 578.672 708.2 576.256C705.856 572.289 706.076 569.959 706.076 564.886C706.076 557.392 706.867 551.142 710.488 544.888C711.857 542.524 712.204 539.933 713.103 537.469C714.653 533.218 719.296 531.31 721.927 526.825C723.048 524.914 725.127 523.05 727.401 522.551C729.258 522.144 731.246 520.828 733.104 520.42C734.69 520.073 734.809 519.951 736.961 519.648C743.121 518.78 747.256 516.419 756.815 519.648C766.375 522.877 775.279 530.592 776.67 535.534C777.435 538.254 782.492 540.118 784.023 543.517C785.392 546.556 787.212 549.552 788.762 552.951C791.727 559.455 792.847 565.148 792.847 572.466C792.847 587.303 773.577 609.065 758.694 612.139C748.244 614.298 738.382 618.32 728.137 620.848C715.176 624.046 698.034 621.17 684.751 621.17C675.191 621.17 665.632 621.17 656.072 621.17C645.789 621.17 638.868 617.194 629.6 615.042C613.603 611.327 601.96 600.71 586.868 595.125C581.492 593.135 578.993 586.835 573.713 585.206C570.936 584.35 568.543 582.129 565.706 580.529C559.512 577.036 559.526 568.214 556.065 562.789C552.726 557.555 555.464 549.455 550.917 544.968C546.603 540.711 550.917 532.726 550.917 526.922" stroke="#6EF4AC" stroke-opacity="0.25" stroke-dasharray="3 3"/>
<path d="M566.503 504.746H567.148C568.41 504.746 569.316 505.368 569.865 506.613C569.955 507.006 570 507.291 570 507.469V507.662C570 509.833 568.189 511.709 564.566 513.291C564.153 513.512 563.529 513.754 562.692 514.018V514.092C563.284 514.276 563.822 514.763 564.306 515.554C564.479 516.057 564.566 516.499 564.566 516.879V517.21C564.566 518.663 563.813 519.807 562.306 520.641C561.577 520.911 560.845 521.046 560.109 521.046C558.471 521.046 557.356 520.227 556.765 518.59C556.896 518.504 557.022 518.461 557.141 518.461C557.464 518.461 557.7 518.771 557.85 519.39C558.489 520.224 559.159 520.641 559.858 520.641H560.369C561.876 520.641 562.997 519.847 563.732 518.259C563.858 517.786 563.92 517.437 563.92 517.21V516.879C563.92 515.757 563.32 514.892 562.118 514.285H561.15C561.06 514.285 561.015 514.242 561.015 514.156C561.015 513.966 561.466 513.81 562.369 513.687C565.932 512.448 568.108 510.973 568.897 509.262C569.202 508.735 569.354 508.223 569.354 507.726V507.469C569.354 506.346 568.727 505.574 567.471 505.151L566.7 505.077C565.797 505.077 564.461 505.92 562.692 507.607C560.253 510.428 558.468 512.874 557.338 514.947C556.388 516.407 555.461 517.998 554.559 519.721C553.291 521.947 551.892 524.682 550.362 527.926L550.039 528H549.851C549.785 528 549.699 527.911 549.591 527.733C549.591 526.807 551.247 523.008 554.559 516.336C556.968 511.571 558.28 508.901 558.495 508.324L558.379 508.269C558.666 507.643 558.965 507.331 559.275 507.331C559.449 507.404 559.535 507.472 559.535 507.533C559.362 508.048 557.9 511.071 555.151 516.603C553.058 520.779 551.937 523.097 551.788 523.557C551.878 523.52 552.353 522.619 553.214 520.853C559.06 510.115 563.49 504.746 566.503 504.746Z" fill="#6EF4AC" fill-opacity="0.25"/>
<path d="M554.231 499.368L553.774 498.899C552.882 497.984 551.813 497.768 550.566 498.249C550.232 498.461 550.004 498.63 549.881 498.756L549.748 498.893C548.252 500.428 548.239 503.069 549.71 506.815C549.85 507.271 550.124 507.895 550.534 508.688L550.484 508.741C549.938 508.441 549.222 508.396 548.334 508.604C547.865 508.834 547.499 509.083 547.237 509.352L547.009 509.586C546.007 510.614 545.751 511.969 546.242 513.651C546.571 514.371 546.996 514.998 547.516 515.531C548.674 516.719 550.027 516.949 551.574 516.221C551.54 516.064 551.481 515.943 551.397 515.856C551.168 515.622 550.788 515.67 550.255 515.999C549.228 516.125 548.467 515.934 547.973 515.427L547.611 515.056C546.546 513.964 546.301 512.589 546.876 510.933C547.112 510.508 547.309 510.215 547.465 510.054L547.694 509.82C548.467 509.027 549.488 508.851 550.756 509.293L551.441 509.996C551.504 510.061 551.566 510.063 551.625 510.002C551.756 509.868 551.545 509.43 550.991 508.688C549.325 505.228 548.803 502.607 549.425 500.825C549.573 500.231 549.818 499.758 550.16 499.407L550.338 499.225C551.111 498.431 552.088 498.34 553.267 498.951L553.863 499.459C554.501 500.113 554.865 501.679 554.954 504.155C554.734 507.919 554.309 510.943 553.679 513.229C553.345 514.95 552.904 516.747 552.354 518.621C551.716 521.114 550.82 524.063 549.666 527.467L549.843 527.753L549.976 527.89C550.023 527.937 550.145 527.937 550.344 527.89C550.982 527.235 552.43 523.347 554.687 516.227C556.268 511.11 557.181 508.27 557.427 507.706L557.547 507.752C557.775 507.101 557.78 506.663 557.56 506.438C557.386 506.364 557.279 506.349 557.236 506.392C557.004 506.882 555.953 510.08 554.085 515.986C552.686 520.457 551.881 522.909 551.669 523.343C551.631 523.252 551.917 522.27 552.525 520.396C555.793 508.563 556.361 501.553 554.231 499.368Z" fill="#6EF4AC" fill-opacity="0.25"/>
<path d="M570.353 506.502L570.342 506.455L570.323 506.411C570.019 505.724 569.603 505.176 569.057 504.801C568.509 504.424 567.865 504.246 567.148 504.246H566.503C565.603 504.246 564.659 504.645 563.685 505.347C562.707 506.052 561.657 507.094 560.535 508.454C559.778 509.372 558.982 510.442 558.147 511.663C558.372 511.204 558.576 510.784 558.759 510.404C559.481 508.911 559.91 507.988 560.009 507.693L560.035 507.615V507.533C560.035 507.261 559.851 507.099 559.777 507.042C559.684 506.969 559.573 506.914 559.471 506.87L559.377 506.831H559.275C558.937 506.831 558.663 507.004 558.457 507.22C558.313 507.37 558.184 507.558 558.067 507.774C558.162 507.477 558.219 507.196 558.221 506.94C558.224 506.642 558.151 506.328 557.918 506.089L557.848 506.017L557.756 505.978C557.653 505.934 557.536 505.893 557.419 505.876C557.328 505.863 557.075 505.842 556.878 506.043L556.82 506.103L556.785 506.178C556.651 506.46 556.318 507.423 555.799 509.002C555.672 509.391 555.532 509.818 555.381 510.286C555.631 508.824 555.804 507.497 555.901 506.304C556.045 504.529 556.02 503.033 555.816 501.828C555.612 500.627 555.221 499.667 554.589 499.019L554.132 498.55C553.629 498.034 553.052 497.692 552.403 497.56C551.755 497.429 551.078 497.515 550.386 497.782L550.34 497.8L550.298 497.827C549.961 498.041 549.69 498.236 549.523 498.407L549.39 498.544C547.668 500.31 547.766 503.224 549.238 506.98C549.327 507.266 549.46 507.603 549.635 507.988C549.197 507.951 548.722 508 548.22 508.117L548.165 508.13L548.114 508.155C547.612 508.401 547.193 508.68 546.879 509.003L546.651 509.237C545.494 510.424 545.234 511.981 545.762 513.791L545.772 513.826L545.787 513.86C546.139 514.628 546.596 515.303 547.158 515.88C547.795 516.534 548.515 516.951 549.316 517.088C550.115 517.223 550.944 517.07 551.787 516.673L552.147 516.504L552.063 516.115C552.015 515.896 551.923 515.68 551.755 515.507L551.401 515.852L551.755 515.507C551.512 515.258 551.193 515.181 550.878 515.22C550.618 515.253 550.353 515.363 550.092 515.515C549.206 515.605 548.66 515.416 548.331 515.078L547.969 514.707C547.5 514.226 547.224 513.698 547.121 513.118C547.018 512.544 547.079 511.888 547.334 511.137C547.557 510.74 547.72 510.51 547.823 510.403L548.052 510.169C548.37 509.842 548.725 509.655 549.124 509.586C549.504 509.521 549.953 509.559 550.483 509.729L551.083 510.345C551.162 510.426 551.307 510.539 551.517 510.546C551.736 510.554 551.894 510.443 551.983 510.351C552.172 510.158 552.174 509.916 552.154 509.775C552.134 509.629 552.077 509.485 552.015 509.356C551.892 509.102 551.688 508.79 551.421 508.429C549.779 505.004 549.349 502.561 549.897 500.989L549.904 500.968L549.91 500.945C550.042 500.416 550.251 500.03 550.518 499.756L550.696 499.574C551.011 499.25 551.342 499.092 551.697 499.059C552.05 499.026 552.476 499.113 552.988 499.37L553.52 499.823C553.738 500.056 553.957 500.501 554.128 501.237C554.298 501.972 554.409 502.939 554.453 504.149C554.234 507.885 553.813 510.863 553.197 513.096L553.192 513.114L553.188 513.133C552.858 514.838 552.42 516.62 551.874 518.48L551.872 518.488L551.87 518.497C551.393 520.361 550.769 522.484 550 524.869C549.763 525.436 549.573 525.925 549.43 526.335C549.225 526.917 549.091 527.405 549.091 527.733V527.873L549.163 527.992C549.225 528.095 549.297 528.198 549.379 528.282C549.441 528.346 549.604 528.5 549.851 528.5H550.039H550.096L550.15 528.487L550.473 528.414L550.711 528.36L550.814 528.14C550.828 528.112 550.841 528.084 550.854 528.055C551.037 527.804 551.228 527.438 551.429 527.001C551.582 526.667 551.751 526.268 551.936 525.805C553.03 523.571 554.049 521.626 554.993 519.969L554.998 519.961L555.002 519.953C555.898 518.242 556.817 516.665 557.757 515.22L557.768 515.204L557.778 515.186C558.881 513.162 560.635 510.752 563.054 507.952C563.919 507.129 564.663 506.527 565.288 506.132C565.914 505.737 566.369 505.584 566.679 505.577L567.365 505.643C567.902 505.832 568.265 506.08 568.496 506.363C568.728 506.649 568.854 507.007 568.854 507.469V507.726C568.854 508.117 568.735 508.544 568.464 509.012L568.453 509.032L568.443 509.053C567.749 510.557 565.769 511.969 562.251 513.198C561.814 513.26 561.453 513.332 561.19 513.424C561.056 513.47 560.913 513.532 560.795 513.623C560.679 513.713 560.515 513.888 560.515 514.156C560.515 514.282 560.549 514.466 560.703 514.614C560.853 514.757 561.033 514.785 561.15 514.785H561.996C562.487 515.048 562.833 515.349 563.059 515.674C563.297 516.017 563.42 516.413 563.42 516.879V517.21C563.42 517.362 563.376 517.645 563.26 518.088C562.923 518.803 562.515 519.309 562.051 519.637C561.583 519.969 561.03 520.141 560.369 520.141H559.858C559.397 520.141 558.878 519.88 558.308 519.165C558.228 518.868 558.117 518.599 557.958 518.39C557.767 518.14 557.491 517.961 557.141 517.961C556.898 517.961 556.679 518.049 556.491 518.171L556.16 518.387L556.294 518.76C556.615 519.648 557.093 520.353 557.749 520.835C558.407 521.318 559.204 521.546 560.109 521.546C560.907 521.546 561.698 521.399 562.48 521.11L562.515 521.097L562.548 521.079C564.179 520.176 565.066 518.882 565.066 517.21V516.879C565.066 516.426 564.963 515.927 564.779 515.391L564.761 515.34L564.732 515.293C564.456 514.841 564.149 514.459 563.808 514.166C564.197 514.021 564.524 513.88 564.784 513.742C568.421 512.15 570.5 510.155 570.5 507.662V507.469C570.5 507.23 570.443 506.897 570.353 506.502ZM557.718 508.509L557.846 508.57C557.7 508.89 557.477 509.36 557.172 509.986C557.41 509.252 557.591 508.709 557.718 508.351L557.78 508.374L557.718 508.509Z" stroke="#6EF4AC" stroke-opacity="0.25"/>
</svg>
